<svg xmlns="http://www.w3.org/2000/svg" viewBox="0 0 120 120">
  <defs>
    <linearGradient id="ring" x1="0" y1="0" x2="1" y2="1">
      <stop offset="0" stop-color="#2f7bff"/>
      <stop offset="1" stop-color="#0a3fa8"/>
    </linearGradient>
  </defs>
  <!-- speed dashes -->
  <g fill="#2f7bff">
    <rect x="4" y="38" width="22" height="7" rx="3.5"/>
    <rect x="12" y="54" width="26" height="7" rx="3.5"/>
    <rect x="6" y="70" width="18" height="7" rx="3.5"/>
    <circle cx="10" cy="25" r="3.5"/>
    <circle cx="20" cy="86" r="3.5"/>
  </g>
  <!-- magnifier ring -->
  <circle cx="66" cy="54" r="34" fill="#ffffff" stroke="url(#ring)" stroke-width="9"/>
  <!-- handle -->
  <rect x="88" y="80" width="26" height="13" rx="6.5" transform="rotate(45 88 80)" fill="#0e1f4d"/>
  <!-- briefcase -->
  <g fill="#0e1f4d">
    <rect x="48" y="42" width="36" height="26" rx="4"/>
    <path d="M60 42v-4a3 3 0 0 1 3-3h6a3 3 0 0 1 3 3v4h-4v-3.5h-4V42z"/>
  </g>
  <path d="M48 54c6 3 12 4.5 18 4.5S78 57 84 54" stroke="#ffffff" stroke-width="2.5" fill="none"/>
  <rect x="62" y="52" width="8" height="7" rx="1.5" fill="#ffffff"/>
</svg>
